<?xml version="1.0" encoding="utf-8"?>
<!-- Generator: Adobe Illustrator 25.4.1, SVG Export Plug-In . SVG Version: 6.00 Build 0)  -->
<svg version="1.1" id="Layer_1" xmlns="http://www.w3.org/2000/svg" xmlns:xlink="http://www.w3.org/1999/xlink" x="0px" y="0px"
	 viewBox="0 0 400 400" style="enable-background:new 0 0 400 400;" xml:space="preserve">
<style type="text/css">
	.st0{fill:#639A00;}
	.st1{fill:#FFFFFF;}
</style>
<g>
	<rect class="st0" width="400" height="400"/>
</g>
<g>
	<path class="st1" d="M138.17,244.5c-7.22,7.22-18.4,10.32-30.62,10.32c-11.35,0-21.5-3.27-28.9-10.32
		c-5.16-4.99-9.46-12.38-9.46-20.81h20.12c0,3.96,2.06,8.26,4.82,10.49c3.44,2.75,7.4,3.96,13.59,3.96
		c7.22,0,18.23-1.55,18.23-11.35c0-5.16-3.44-8.6-8.94-9.46c-7.91-1.2-16.86-1.72-24.77-3.44c-12.21-2.58-20.47-12.56-20.47-23.91
		c0-9.12,3.78-15.48,9.12-20.12c6.54-5.68,16-8.94,27.18-8.94c10.66,0,21.5,3.44,28.04,10.49c4.82,5.16,7.91,11.87,7.91,18.4h-20.47
		c0-3.44-1.55-6.19-3.61-8.43c-2.58-2.58-7.22-4.13-11.7-4.13c-3.1,0-6.02,0-9.29,1.38c-3.78,1.55-6.88,4.82-6.88,9.46
		c0,6.36,5.5,8.26,10.32,8.94c8.08,1.03,10.32,1.2,19.09,2.58c14.1,2.24,24.42,11.18,24.42,25.28
		C145.91,233.5,142.81,239.86,138.17,244.5z"/>
	<path class="st1" d="M227.78,244.5c-7.22,7.22-18.4,10.32-30.62,10.32c-11.35,0-21.5-3.27-28.9-10.32
		c-5.16-4.99-9.46-12.38-9.46-20.81h20.12c0,3.96,2.06,8.26,4.82,10.49c3.44,2.75,7.4,3.96,13.59,3.96
		c7.22,0,18.23-1.55,18.23-11.35c0-5.16-3.44-8.6-8.94-9.46c-7.91-1.2-16.86-1.72-24.77-3.44c-12.21-2.58-20.47-12.56-20.47-23.91
		c0-9.12,3.78-15.48,9.12-20.12c6.54-5.68,16-8.94,27.18-8.94c10.66,0,21.5,3.44,28.04,10.49c4.82,5.16,7.91,11.87,7.91,18.4h-20.47
		c0-3.44-1.55-6.19-3.61-8.43c-2.58-2.58-7.22-4.13-11.7-4.13c-3.1,0-6.02,0-9.29,1.38c-3.78,1.55-6.88,4.82-6.88,9.46
		c0,6.36,5.5,8.26,10.32,8.94c8.08,1.03,10.32,1.2,19.09,2.58c14.1,2.24,24.42,11.18,24.42,25.28
		C235.52,233.5,232.42,239.86,227.78,244.5z"/>
	<path class="st1" d="M331.15,214.58h-59.86c-0.17,6.88,2.24,13.42,6.54,17.54c3.1,2.92,7.4,5.5,13.24,5.5
		c6.19,0,9.98-1.2,13.07-4.3c1.89-1.89,3.44-4.3,4.3-7.57h20.64c-0.52,5.33-4.13,12.38-7.57,16.51
		c-7.57,8.94-18.75,12.56-30.1,12.56c-12.21,0-21.16-4.3-28.21-11.01c-8.94-8.6-13.76-21.16-13.76-35.78c0-14.27,4.3-27,12.9-35.77
		c6.71-6.88,16.34-11.35,28.55-11.35c13.24,0,25.28,5.33,32.68,16.51c6.54,9.8,8.08,19.95,7.74,31.13
		C331.32,208.56,331.15,212.69,331.15,214.58z M304.32,183.27c-2.92-3.1-7.4-5.16-13.59-5.16c-6.54,0-11.87,2.75-14.96,6.88
		c-3.1,3.96-4.47,8.08-4.64,13.93h38.7C309.65,192.22,307.76,187.06,304.32,183.27z"/>
</g>
<g>
</g>
<g>
</g>
<g>
</g>
<g>
</g>
<g>
</g>
<g>
</g>
<g>
</g>
<g>
</g>
<g>
</g>
<g>
</g>
<g>
</g>
<g>
</g>
<g>
</g>
<g>
</g>
<g>
</g>
</svg>
