<svg id="Layer_1" data-name="Layer 1" xmlns="http://www.w3.org/2000/svg" xmlns:xlink="http://www.w3.org/1999/xlink" viewBox="0 0 276.46 88"><defs><style>.cls-1{fill:none;}.cls-2{clip-path:url(#clip-path);}.cls-3{fill:#639a00;}.cls-4{fill:#fff;}</style><clipPath id="clip-path" transform="translate(-6 -6)"><rect class="cls-1" x="6" y="6" width="88" height="88"/></clipPath></defs><g class="cls-2"><rect class="cls-3" width="88" height="88"/><path class="cls-4" d="M36.21,59.62a9.39,9.39,0,0,1-6.73,2.27,9,9,0,0,1-6.36-2.27A6.5,6.5,0,0,1,21,55.05h4.43a3.13,3.13,0,0,0,1.06,2.3,4.35,4.35,0,0,0,3,.87c1.59,0,4-.34,4-2.49a2.06,2.06,0,0,0-2-2.08c-1.74-.27-3.71-.38-5.45-.76a5.46,5.46,0,0,1-4.5-5.26,5.59,5.59,0,0,1,2-4.42,9,9,0,0,1,6-2,8.49,8.49,0,0,1,6.17,2.31,6.16,6.16,0,0,1,1.74,4H33a2.71,2.71,0,0,0-.79-1.85,3.79,3.79,0,0,0-2.57-.91,4.75,4.75,0,0,0-2,.31,2.25,2.25,0,0,0-1.52,2.08c0,1.4,1.21,1.81,2.27,2,1.78.23,2.27.27,4.2.57,3.1.49,5.37,2.46,5.37,5.56A5.85,5.85,0,0,1,36.21,59.62Z" transform="translate(-6 -6)"/><path class="cls-4" d="M55.92,59.62a9.39,9.39,0,0,1-6.73,2.27,9,9,0,0,1-6.36-2.27,6.5,6.5,0,0,1-2.08-4.57h4.43a3.13,3.13,0,0,0,1.06,2.3,4.35,4.35,0,0,0,3,.87c1.59,0,4-.34,4-2.49a2.06,2.06,0,0,0-2-2.08c-1.74-.27-3.71-.38-5.45-.76a5.46,5.46,0,0,1-4.5-5.26,5.59,5.59,0,0,1,2-4.42,9,9,0,0,1,6-2,8.47,8.47,0,0,1,6.16,2.31,6.12,6.12,0,0,1,1.75,4H52.7a2.71,2.71,0,0,0-.79-1.85,3.79,3.79,0,0,0-2.57-.91,4.82,4.82,0,0,0-2.05.31,2.26,2.26,0,0,0-1.51,2.08c0,1.4,1.21,1.81,2.27,2,1.78.23,2.27.27,4.2.57,3.1.49,5.37,2.46,5.37,5.56A5.85,5.85,0,0,1,55.92,59.62Z" transform="translate(-6 -6)"/><path class="cls-4" d="M78.65,53H65.49a5.18,5.18,0,0,0,1.44,3.86,4.15,4.15,0,0,0,2.91,1.21,3.67,3.67,0,0,0,2.87-.94,3.59,3.59,0,0,0,1-1.67H78.2a7.82,7.82,0,0,1-1.66,3.63,8.44,8.44,0,0,1-6.62,2.76,8.57,8.57,0,0,1-6.21-2.42,10.68,10.68,0,0,1-3-7.87,11,11,0,0,1,2.83-7.86,8.53,8.53,0,0,1,6.28-2.5A8.32,8.32,0,0,1,77,44.87a11,11,0,0,1,1.7,6.85S78.65,52.63,78.65,53Zm-5.9-6.88a3.94,3.94,0,0,0-3-1.14,4,4,0,0,0-3.29,1.52,4.82,4.82,0,0,0-1,3.06H74A5,5,0,0,0,72.75,46.16Z" transform="translate(-6 -6)"/></g><path d="M116.05,29.43a6,6,0,0,1-4.22,1.49,6.17,6.17,0,0,1-4.26-1.42A5,5,0,0,1,106,25.93h2a3.4,3.4,0,0,0,1,2.35,4.2,4.2,0,0,0,2.85.92,4,4,0,0,0,2.78-.86,2.19,2.19,0,0,0,.75-1.74c0-1.16-.73-2.12-2.5-2.39l-2.35-.36c-2.22-.34-4-1.58-4-4A4.12,4.12,0,0,1,107.85,17a5.54,5.54,0,0,1,3.9-1.47,5.6,5.6,0,0,1,3.86,1.43A4.43,4.43,0,0,1,117,20.11h-2a3.13,3.13,0,0,0-.74-1.87,3.35,3.35,0,0,0-2.62-1,3.39,3.39,0,0,0-2.65,1,2.41,2.41,0,0,0-.6,1.62c0,1.34,1.11,1.95,2.22,2.1.84.1,1.66.25,2.48.38,2.48.35,4.13,1.87,4.13,4.22A3.84,3.84,0,0,1,116.05,29.43Z" transform="translate(-6 -6)"/><path d="M128.86,25.93h-7.51a3.91,3.91,0,0,0,1,2.66,2.62,2.62,0,0,0,2,.76,2.66,2.66,0,0,0,2-.69,2.19,2.19,0,0,0,.63-1.16h1.75A3.94,3.94,0,0,1,127,30.13a4.93,4.93,0,0,1-2.71.79,4.55,4.55,0,0,1-3.53-1.59,6,6,0,0,1-1.32-3.95,6.47,6.47,0,0,1,.82-3.4,4.54,4.54,0,0,1,4-2.23,4.27,4.27,0,0,1,3.23,1.37,5.48,5.48,0,0,1,1.35,3.74Zm-2.45-3.7a2.52,2.52,0,0,0-2.1-1,3,3,0,0,0-2.92,3.13h5.67A3.74,3.74,0,0,0,126.41,22.23Z" transform="translate(-6 -6)"/><path d="M138.9,29.77a4.21,4.21,0,0,1-3.06,1.15,4.46,4.46,0,0,1-3.89-2,6.33,6.33,0,0,1-.88-3.59,6.33,6.33,0,0,1,.88-3.59,4.43,4.43,0,0,1,3.87-2,4.2,4.2,0,0,1,3,1.14,4.06,4.06,0,0,1,1.26,2.73h-1.81a2.63,2.63,0,0,0-.75-1.66,2.48,2.48,0,0,0-1.72-.65A2.68,2.68,0,0,0,134,22a4.36,4.36,0,0,0-1.07,3.34A4.36,4.36,0,0,0,134,28.68a2.68,2.68,0,0,0,1.85.69,2.48,2.48,0,0,0,1.8-.71,2.65,2.65,0,0,0,.72-1.58h1.8A3.94,3.94,0,0,1,138.9,29.77Z" transform="translate(-6 -6)"/><path d="M149.82,30.65,149.68,29a3.46,3.46,0,0,1-3.15,1.86c-2.42,0-3.64-1.44-3.64-3.9V20h1.79v6.72c0,1.59.59,2.54,2.27,2.54a2.41,2.41,0,0,0,1.76-.8,4.28,4.28,0,0,0,.88-2.94V20h1.79V30.65Z" transform="translate(-6 -6)"/><path d="M160,21.69a2.91,2.91,0,0,0-2,.84c-.86.82-1,2.28-1,3.4v4.72h-1.77V20h1.58L157,21.9A3.28,3.28,0,0,1,160.18,20,6.07,6.07,0,0,1,161,20v1.74A5.58,5.58,0,0,0,160,21.69Z" transform="translate(-6 -6)"/><path d="M171.68,25.93h-7.51a3.86,3.86,0,0,0,1,2.66,2.62,2.62,0,0,0,2,.76,2.66,2.66,0,0,0,2-.69,2.26,2.26,0,0,0,.63-1.16h1.74a3.9,3.9,0,0,1-1.63,2.63,4.93,4.93,0,0,1-2.71.79,4.55,4.55,0,0,1-3.53-1.59,6,6,0,0,1-1.32-3.95,6.47,6.47,0,0,1,.82-3.4,4.54,4.54,0,0,1,4-2.23,4.28,4.28,0,0,1,3.23,1.37,5.43,5.43,0,0,1,1.34,3.74Zm-2.45-3.7a2.52,2.52,0,0,0-2.1-1,3,3,0,0,0-2.92,3.13h5.67A3.74,3.74,0,0,0,169.23,22.23Z" transform="translate(-6 -6)"/><path d="M116.05,54.63a6,6,0,0,1-4.22,1.49,6.17,6.17,0,0,1-4.26-1.42A4.94,4.94,0,0,1,106,51.13h2a3.4,3.4,0,0,0,1,2.35,4.2,4.2,0,0,0,2.85.92,4,4,0,0,0,2.78-.86,2.19,2.19,0,0,0,.75-1.74c0-1.15-.73-2.12-2.5-2.39l-2.35-.36c-2.22-.34-4-1.58-4-3.95a4.12,4.12,0,0,1,1.31-2.94,5.54,5.54,0,0,1,3.9-1.47,5.6,5.6,0,0,1,3.86,1.43A4.43,4.43,0,0,1,117,45.31h-2a3.13,3.13,0,0,0-.74-1.87,3.35,3.35,0,0,0-2.62-1,3.39,3.39,0,0,0-2.65,1,2.41,2.41,0,0,0-.6,1.62c0,1.34,1.11,1.95,2.22,2.1.84.1,1.66.25,2.48.38,2.48.35,4.13,1.87,4.13,4.22A3.84,3.84,0,0,1,116.05,54.63Z" transform="translate(-6 -6)"/><path d="M127.44,54.89a4.82,4.82,0,0,1-6.43,0,5.83,5.83,0,0,1-1.51-4.35A5.83,5.83,0,0,1,121,46.19a4.82,4.82,0,0,1,6.43,0A5.83,5.83,0,0,1,129,50.54,5.83,5.83,0,0,1,127.44,54.89Zm-1.3-7.65a2.66,2.66,0,0,0-1.92-.75,2.62,2.62,0,0,0-1.91.75,4.8,4.8,0,0,0-1,3.3,4.8,4.8,0,0,0,1,3.3,2.62,2.62,0,0,0,1.91.75,2.66,2.66,0,0,0,1.92-.75,4.8,4.8,0,0,0,1-3.3A4.8,4.8,0,0,0,126.14,47.24Z" transform="translate(-6 -6)"/><path d="M135.8,42a1.39,1.39,0,0,0-1.52,1.45v1.79h3.07v1.51h-3.07v9.11H132.5V46.74h-1.93V45.23h1.93V43.34a2.88,2.88,0,0,1,3.09-2.86,11.55,11.55,0,0,1,2,.19v1.49A13.47,13.47,0,0,0,135.8,42Z" transform="translate(-6 -6)"/><path d="M143,56a2.61,2.61,0,0,1-2.92-2.88V46.76H138V45.23h2.06V42.52l1.78-.42v3.13H145v1.53h-3.15v6.15c0,1,.45,1.45,1.43,1.45a13,13,0,0,0,1.83-.19v1.54A7.92,7.92,0,0,1,143,56Z" transform="translate(-6 -6)"/><path d="M158.31,55.85h-1.73l-2.77-8.12L151,55.85h-1.7l-2.73-10.62h1.76l2,8,2.71-7.9h1.53l2.67,7.9,2.05-8h1.75Z" transform="translate(-6 -6)"/><path d="M171.43,56a1.51,1.51,0,0,1-1.53-1.62h0a3.87,3.87,0,0,1-3.42,1.74,3.33,3.33,0,0,1-3.66-3.27c0-1.37.88-3.15,3.78-3.32l3.23-.19v-.77a2.1,2.1,0,0,0-.54-1.62,2.38,2.38,0,0,0-1.74-.55,2.68,2.68,0,0,0-1.94.63,1.77,1.77,0,0,0-.52,1.28h-1.74a3.13,3.13,0,0,1,.92-2.22A4.54,4.54,0,0,1,167.51,45c2.05,0,3.23.88,3.73,2a4.07,4.07,0,0,1,.32,1.64v5.14c0,.57.23.72.59.72a2.45,2.45,0,0,0,.46-.07v1.33A2.48,2.48,0,0,1,171.43,56Zm-1.64-5.27-2.85.17c-1.07.06-2.33.56-2.33,1.91,0,.94.59,1.82,2.1,1.82a3,3,0,0,0,2.18-.86,3.42,3.42,0,0,0,.9-2.41Z" transform="translate(-6 -6)"/><path d="M180.19,46.89a2.91,2.91,0,0,0-2,.84c-.86.82-1,2.29-1,3.4v4.72h-1.77V45.23H177l.15,1.87a3.27,3.27,0,0,1,3.17-1.93,6,6,0,0,1,.84.06V47A5.58,5.58,0,0,0,180.19,46.89Z" transform="translate(-6 -6)"/><path d="M191.84,51.13h-7.51a3.91,3.91,0,0,0,1,2.66,2.62,2.62,0,0,0,1.95.76,2.66,2.66,0,0,0,2-.69,2.19,2.19,0,0,0,.63-1.16h1.74A3.9,3.9,0,0,1,190,55.33a4.93,4.93,0,0,1-2.71.79,4.52,4.52,0,0,1-3.53-1.59,6,6,0,0,1-1.32-4,6.47,6.47,0,0,1,.82-3.4,4.54,4.54,0,0,1,4-2.22,4.28,4.28,0,0,1,3.23,1.36,5.48,5.48,0,0,1,1.35,3.74Zm-2.45-3.7a2.52,2.52,0,0,0-2.1-1,3,3,0,0,0-2.92,3.13H190A3.74,3.74,0,0,0,189.39,47.43Z" transform="translate(-6 -6)"/><path d="M107.13,81.05V66.17h10v1.72H109v4.53h7.1v1.77H109v5.14h8.08v1.72Z" transform="translate(-6 -6)"/><path d="M126.91,81.05V74.31c0-1.59-.65-2.54-2.33-2.54a2.6,2.6,0,0,0-2.31,1.64,7.15,7.15,0,0,0-.38,2.71v4.93h-1.78V70.43h1.55l.15,1.59A3.62,3.62,0,0,1,125,70.15c2.42,0,3.68,1.45,3.68,3.91v7Z" transform="translate(-6 -6)"/><path d="M140.56,84.77c-1,1-2.79,1.24-4.28,1.24a5.61,5.61,0,0,1-4-1.24,2.57,2.57,0,0,1-.76-1.89A2.61,2.61,0,0,1,133,80.53a1.94,1.94,0,0,1-1.24-1.79,2.31,2.31,0,0,1,1.41-2.06A3.74,3.74,0,0,1,132,73.93a3.5,3.5,0,0,1,1-2.58,4.18,4.18,0,0,1,3.15-1.2,4.5,4.5,0,0,1,2.44.64,2.23,2.23,0,0,1,2.18-1.5,3,3,0,0,1,.52,0v1.45a1.54,1.54,0,0,0-.39,0,1.23,1.23,0,0,0-1.31,1,3.43,3.43,0,0,1,.7,2.2,3.75,3.75,0,0,1-1,2.54,4.15,4.15,0,0,1-3.17,1.26,4.69,4.69,0,0,1-1.78-.29c-.4.13-.91.44-.91.94,0,.93.93,1.06,1.6,1.06h2.1a4.92,4.92,0,0,1,3.5,1.11,2.82,2.82,0,0,1,.84,2.08A3,3,0,0,1,140.56,84.77ZM136.91,81h-2.46a1.84,1.84,0,0,0-1.34,1.68,1.5,1.5,0,0,0,.44,1.11,4.06,4.06,0,0,0,2.83.73,4.35,4.35,0,0,0,2.9-.75,1.49,1.49,0,0,0,.44-1.09C139.72,81.05,138.19,81,136.91,81Zm-.82-9.35a2.36,2.36,0,1,0,0,4.71,2.3,2.3,0,0,0,2.41-2.38A2.24,2.24,0,0,0,136.09,71.6Z" transform="translate(-6 -6)"/><path d="M143.61,68v-2.1h2.08V68Zm.12,13.06V70.43h1.83V81.05Z" transform="translate(-6 -6)"/><path d="M156.27,81.05V74.31c0-1.59-.65-2.54-2.33-2.54a2.6,2.6,0,0,0-2.31,1.64,7,7,0,0,0-.38,2.71v4.93h-1.78V70.43H151l.15,1.59a3.6,3.6,0,0,1,3.21-1.87c2.41,0,3.67,1.45,3.67,3.91v7Z" transform="translate(-6 -6)"/><path d="M170.3,76.33h-7.52a3.91,3.91,0,0,0,1,2.66,2.62,2.62,0,0,0,1.95.76,2.7,2.7,0,0,0,2-.69,2.33,2.33,0,0,0,.63-1.16h1.74a3.94,3.94,0,0,1-1.64,2.63,4.93,4.93,0,0,1-2.71.79,4.52,4.52,0,0,1-3.53-1.59,6,6,0,0,1-1.32-4,6.47,6.47,0,0,1,.82-3.4,4.56,4.56,0,0,1,4-2.23A4.25,4.25,0,0,1,169,71.52a5.44,5.44,0,0,1,1.35,3.74Zm-2.46-3.7a2.5,2.5,0,0,0-2.1-1,3,3,0,0,0-2.92,3.12h5.67A3.73,3.73,0,0,0,167.84,72.63Z" transform="translate(-6 -6)"/><path d="M181.87,76.33h-7.52a3.91,3.91,0,0,0,1,2.66,2.62,2.62,0,0,0,2,.76,2.68,2.68,0,0,0,2-.69,2.33,2.33,0,0,0,.63-1.16h1.74A3.94,3.94,0,0,1,180,80.53a4.9,4.9,0,0,1-2.71.79,4.48,4.48,0,0,1-3.52-1.59,6,6,0,0,1-1.33-4,6.47,6.47,0,0,1,.82-3.4,4.56,4.56,0,0,1,4-2.23,4.25,4.25,0,0,1,3.23,1.37,5.44,5.44,0,0,1,1.35,3.74Zm-2.46-3.7a2.5,2.5,0,0,0-2.1-1,3,3,0,0,0-2.92,3.12h5.67A3.73,3.73,0,0,0,179.41,72.63Z" transform="translate(-6 -6)"/><path d="M189.64,72.09a2.91,2.91,0,0,0-2,.84c-.86.82-1,2.28-1,3.4v4.72h-1.77V70.43h1.58l.15,1.87a3.27,3.27,0,0,1,3.17-1.93,6,6,0,0,1,.84.06v1.74A5.58,5.58,0,0,0,189.64,72.09Z" transform="translate(-6 -6)"/><path d="M192.83,68v-2.1h2.08V68ZM193,81.05V70.43h1.82V81.05Z" transform="translate(-6 -6)"/><path d="M205.49,81.05V74.31c0-1.59-.65-2.54-2.33-2.54a2.6,2.6,0,0,0-2.31,1.64,7.15,7.15,0,0,0-.38,2.71v4.93h-1.78V70.43h1.55l.15,1.59a3.62,3.62,0,0,1,3.21-1.87c2.42,0,3.68,1.45,3.68,3.91v7Z" transform="translate(-6 -6)"/><path d="M219.14,84.77c-1,1-2.79,1.24-4.28,1.24a5.61,5.61,0,0,1-4-1.24,2.57,2.57,0,0,1-.76-1.89,2.61,2.61,0,0,1,1.51-2.35,1.93,1.93,0,0,1-1.23-1.79,2.3,2.3,0,0,1,1.4-2.06,3.74,3.74,0,0,1-1.22-2.75,3.5,3.5,0,0,1,1-2.58,4.2,4.2,0,0,1,3.15-1.2,4.5,4.5,0,0,1,2.44.64,2.23,2.23,0,0,1,2.18-1.5,3.17,3.17,0,0,1,.53,0v1.45a1.67,1.67,0,0,0-.4,0,1.23,1.23,0,0,0-1.31,1,3.37,3.37,0,0,1,.7,2.2,3.75,3.75,0,0,1-1,2.54,4.15,4.15,0,0,1-3.17,1.26,4.69,4.69,0,0,1-1.78-.29c-.4.13-.91.44-.91.94,0,.93.93,1.06,1.6,1.06h2.1a5,5,0,0,1,3.51,1.11,2.85,2.85,0,0,1,.83,2.08A3,3,0,0,1,219.14,84.77ZM215.49,81H213a1.84,1.84,0,0,0-1.34,1.68,1.5,1.5,0,0,0,.44,1.11,4.06,4.06,0,0,0,2.83.73,4.35,4.35,0,0,0,2.9-.75,1.49,1.49,0,0,0,.44-1.09C218.3,81.05,216.77,81,215.49,81Zm-.82-9.35a2.36,2.36,0,1,0,0,4.71,2.3,2.3,0,0,0,2.41-2.38A2.24,2.24,0,0,0,214.67,71.6Z" transform="translate(-6 -6)"/><path d="M236.61,81.05l-.31-1.78a4.86,4.86,0,0,1-4.05,2.08,5.65,5.65,0,0,1-4-1.54c-1.52-1.47-1.94-3.52-1.94-6.19,0-2.37.32-4.56,1.94-6.13a5.71,5.71,0,0,1,4-1.6,5.81,5.81,0,0,1,4.26,1.68,4.48,4.48,0,0,1,1.28,2.9h-1.95a2.93,2.93,0,0,0-.67-1.64,3.68,3.68,0,0,0-2.92-1.17,3.75,3.75,0,0,0-2.71,1.13c-1.22,1.26-1.3,3.28-1.3,4.83s.1,3.63,1.34,4.89a3.6,3.6,0,0,0,2.67,1.07,3.84,3.84,0,0,0,2.71-1,5.21,5.21,0,0,0,1.28-3.78h-4V73h5.67v8Z" transform="translate(-6 -6)"/><path d="M246.17,72.09a2.91,2.91,0,0,0-2,.84c-.86.82-1,2.28-1,3.4v4.72h-1.77V70.43H243l.15,1.87a3.27,3.27,0,0,1,3.17-1.93,6,6,0,0,1,.84.06v1.74A5.58,5.58,0,0,0,246.17,72.09Z" transform="translate(-6 -6)"/><path d="M256.23,80.09a4.82,4.82,0,0,1-6.43,0,5.83,5.83,0,0,1-1.51-4.35,5.83,5.83,0,0,1,1.51-4.35,4.79,4.79,0,0,1,6.43,0,5.83,5.83,0,0,1,1.51,4.35A5.83,5.83,0,0,1,256.23,80.09Zm-1.3-7.65a2.81,2.81,0,0,0-3.82,0,6,6,0,0,0,0,6.6,2.81,2.81,0,0,0,3.82,0,6,6,0,0,0,0-6.6Z" transform="translate(-6 -6)"/><path d="M267.59,81.05l-.15-1.61a3.45,3.45,0,0,1-3.15,1.86c-2.41,0-3.63-1.44-3.63-3.9v-7h1.79v6.72c0,1.59.58,2.54,2.26,2.54a2.43,2.43,0,0,0,1.77-.8,4.28,4.28,0,0,0,.88-2.94V70.43h1.78V81.05Z" transform="translate(-6 -6)"/><path d="M280.84,80.28a4.16,4.16,0,0,1-2.92,1.07,3.72,3.72,0,0,1-3.09-1.52v5.78h-1.78V70.45h1.57l.13,1.38a3.71,3.71,0,0,1,3.17-1.65,4.05,4.05,0,0,1,3,1.15,7.13,7.13,0,0,1-.08,9Zm-3.21-8.59a2.43,2.43,0,0,0-1.72.69,5.43,5.43,0,0,0,0,6.76,2.43,2.43,0,0,0,1.72.69c2.37,0,3-2.12,3-4.07S280,71.69,277.63,71.69Z" transform="translate(-6 -6)"/></svg>